HIERARCHY
ROOT pelvis
{
  OFFSET 0 100 0
  CHANNELS 6 Xposition Yposition Zposition Zrotation Xrotation Yrotation
  JOINT pelvis_right_femur
  {
    OFFSET -10.78128 -3.44521 -0.5502486
    CHANNELS 3 Zrotation Xrotation Yrotation
    JOINT right_femur_tibia
    {
      OFFSET -0.8047443 -44.0398 -0.1307829
      CHANNELS 3 Zrotation Xrotation Yrotation
      JOINT right_tibia_foot
      {
        OFFSET 3.006224 -47.83518 -5
        CHANNELS 3 Zrotation Xrotation Yrotation
        End Site
        {
          OFFSET 0 -5 15
        }
      }
    }
  }
  JOINT pelvis_left_femur
  {
    OFFSET 10.78128 -3.44521 -0.5502486
    CHANNELS 3 Zrotation Xrotation Yrotation
    JOINT left_femur_tibia
    {
      OFFSET 0.8047443 -44.0398 -0.1307829
      CHANNELS 3 Zrotation Xrotation Yrotation
      JOINT left_tibia_foot
      {
        OFFSET -4.370144 -48.10324 -4.275266
        CHANNELS 3 Zrotation Xrotation Yrotation
        End Site
        {
          OFFSET 0 -5 15
        }
      }
    }
  }
  JOINT pelvis_spine1
  {
    OFFSET 0 6.468898 -3.129235
    CHANNELS 3 Zrotation Xrotation Yrotation
    JOINT spine1
    {
      OFFSET 0 23.15396 4.99043
      CHANNELS 3 Zrotation Xrotation Yrotation
      JOINT spine2
      {
        OFFSET 0 20.79997 -5.064912
        CHANNELS 3 Zrotation Xrotation Yrotation
        JOINT neck
        {
          OFFSET 0 14.38658 9.616178
          CHANNELS 3 Zrotation Xrotation Yrotation
          End Site
          {
            OFFSET 0 20 0
          }
        }
      }
      JOINT right_manubrium
      {
        OFFSET -5.722621 16.35077 3.967754
        CHANNELS 3 Zrotation Xrotation Yrotation
        JOINT right_clavicle
        {
          OFFSET -13.16364 1.694482 -4.693211
          CHANNELS 3 Zrotation Xrotation Yrotation
          JOINT right_humerus
          {
            OFFSET -28.5034 -0.3100689 -2.792744
            CHANNELS 3 Zrotation Xrotation Yrotation
            JOINT right_radius
            {
              OFFSET -25.15693 0.02248979 -1.271978
              CHANNELS 3 Zrotation Xrotation Yrotation
              End Site
              {
                OFFSET -15 0 0
              }
            }
          }
        }
      }
      JOINT left_manubrium
      {
        OFFSET 5.722621 16.35077 3.967754
        CHANNELS 3 Zrotation Xrotation Yrotation
        JOINT left_clavicle
        {
          OFFSET 13.16364 1.694482 -4.693211
          CHANNELS 3 Zrotation Xrotation Yrotation
          JOINT left_humerus
          {
            OFFSET 29.39168 -1.063119 -2.237045
            CHANNELS 3 Zrotation Xrotation Yrotation
            JOINT left_radius
            {
              OFFSET 24.59957 -0.9528479 0.9047498
              CHANNELS 3 Zrotation Xrotation Yrotation
              End Site
              {
                OFFSET 15 -0 -0
              }
            }
          }
        }
      }
    }
  }
}
MOTION
Frames: 10
Frame Time: 0.0416666666667
0 103.5113 0 0.6478297 0.5401597 0.6703079 2.08665 -15.89597 8.065363 -3.570688e-10 39.81872 2.02726e-10 -0.2253933 -12.2671 -3.665157 -6.528594 5.666016 -18.42908 -5.470627e-10 4.927873 2.898498e-10 0.1413633 -19.66639 21.12804 -3.826926 -1.470036 4.254387 2.035891 7.028147 -7.179009 1.243664 21.96846 7.859815 2.906033 -22.74989 9.896243 7.195553 -16.95328 10.97589 82.71949 37.87365 -15.81385 -4.861404e-11 6.732215e-12 17.04663 -12.13528 10.96222 7.351117 5.730762 -17.10065 0.4507919 -92.5465 30.39722 19.91524 -2.475762e-12 -3.833324e-11 -15.31526 -0.6418516 12.33109 14.33262
0.5662048 103.4636 3.318947 0.6589605 0.6388532 1.407381 2.056971 -17.45878 7.989159 -3.859554e-10 40.63306 1.929705e-10 -0.3079331 -11.82281 -3.808606 -6.678745 7.205884 -18.83393 -5.843551e-10 3.822157 3.004837e-10 0.4352812 -20.35526 21.26147 -3.938219 -1.510026 4.049352 2.09785 7.021079 -7.354213 1.237334 22.1053 7.970957 2.961374 -22.93884 10.03889 7.265724 -16.85011 10.9793 83.66812 38.01827 -16.6184 -5.154516e-11 -6.028569e-12 16.71049 -12.00318 10.89353 7.247079 5.872259 -17.34833 0.3877703 -92.7376 30.56249 19.53801 1.567815e-12 -3.520924e-11 -15.81696 -0.4507693 12.56101 14.18155
1.137075 103.4085 6.624579 0.6306038 0.7053592 2.179646 2.142016 -19.17771 7.830264 -4.069769e-10 40.65998 1.742351e-10 -0.5019684 -11.29632 -3.975428 -6.737898 8.851981 -19.04077 -5.908685e-10 3.54963 3.409999e-10 0.6182358 -20.88267 21.17469 -3.969381 -1.543618 3.823241 2.176402 7.049349 -7.55049 1.231951 22.17948 8.035198 3.004326 -23.05491 10.11125 7.257639 -16.65713 10.96692 84.53341 37.98662 -17.52414 -5.348831e-11 -1.989396e-11 16.15102 -11.85254 10.84116 7.071117 6.019507 -17.68875 0.2718102 -92.52777 30.58524 18.85912 6.997024e-12 -3.05876e-11 -16.49087 -0.1384401 12.78024 13.84576
1.687086 103.3538 9.945345 0.5609795 0.7456339 2.957296 2.356292 -21.07133 7.609841 -4.204271e-10 39.86356 1.466541e-10 -0.8058915 -10.71963 -4.167717 -6.711996 10.60166 -19.05845 -5.644081e-10 4.201409 4.164537e-10 0.673901 -21.25073 20.86788 -3.917784 -1.571798 3.582628 2.278067 7.116877 -7.776845 1.226817 22.20478 8.05738 3.038183 -23.11784 10.1196 7.183135 -16.37994 10.95006 85.38478 37.80492 -18.57346 -5.451286e-11 -3.465463e-11 15.37365 -11.68013 10.81717 6.819364 6.175 -18.13729 0.108792 -91.99738 30.47074 17.90961 1.391556e-11 -2.456325e-11 -17.3631 0.2891753 12.99013 13.34219
2.194096 103.3076 13.30257 0.4555224 0.7633581 3.710524 2.677524 -23.00267 7.3474 -4.264044e-10 38.2777 1.125593e-10 -1.188729 -10.12841 -4.366105 -6.609198 12.33595 -18.87983 -5.09152e-10 5.694694 5.206989e-10 0.5951038 -21.4214 20.34039 -3.786404 -1.59153 3.338737 2.394721 7.205442 -8.010309 1.222271 22.15348 8.029087 3.054593 -23.10176 10.05382 7.044954 -16.01617 10.9151 86.02907 37.48554 -19.6296 -5.466313e-11 -4.928309e-11 14.41597 -11.47095 10.80867 6.494894 6.319603 -18.63661 -0.08594456 -91.07112 30.22094 16.7109 2.189514e-11 -1.763733e-11 -18.35433 0.7963644 13.15703 12.70084
2.644894 103.2757 16.71354 0.3282537 0.7586724 4.416963 3.065628 -24.85889 7.071526 -4.273423e-10 36.16237 7.591503e-11 -1.614561 -9.557406 -4.557605 -6.458974 13.96286 -18.55975 -4.371583e-10 7.776321 6.401417e-10 0.4164622 -21.428 19.67251 -3.599423 -1.604344 3.106896 2.516992 7.308842 -8.238071 1.218412 22.05046 7.963984 3.057743 -23.02871 9.935173 6.864637 -15.60925 10.87219 86.50007 37.07587 -20.64254 -5.418844e-11 -6.303365e-11 13.37268 -11.25123 10.81535 6.134633 6.44869 -19.15463 -0.2962232 -89.9207 29.8619 15.39971 3.031651e-11 -1.043538e-11 -19.38838 1.340771 13.28186 11.98633
3.033585 103.2604 20.20349 0.1893511 0.7105523 5.0562 3.501535 -26.50655 6.791871 -4.230984e-10 33.67453 3.923261e-11 -2.076146 -9.031846 -4.733488 -6.274446 15.36069 -18.11719 -3.552014e-10 10.3662 7.636792e-10 0.1563388 -21.27359 18.93148 -3.367011 -1.611345 2.909585 2.635236 7.443025 -8.451469 1.216228 21.93542 7.872051 3.054418 -22.92373 9.77932 6.647253 -15.21806 10.8445 86.92832 36.58042 -21.60939 -5.297392e-11 -7.509435e-11 12.33258 -11.08571 10.85578 5.788066 6.563349 -19.69529 -0.5203992 -88.77376 29.39003 14.12818 3.859956e-11 -3.343159e-12 -20.41496 1.905595 13.37857 11.23677
3.370203 103.2611 23.79033 0.06197674 0.620977 5.620539 3.921375 -27.76472 6.545311 -4.155077e-10 31.26619 7.843831e-12 -2.516837 -8.610849 -4.877329 -6.091214 16.38092 -17.64561 -2.783357e-10 13.03943 8.713426e-10 -0.1248392 -21.02537 18.2614 -3.131175 -1.614744 2.773094 2.734333 7.601409 -8.63207 1.216086 21.85895 7.779212 3.053533 -22.83194 9.626068 6.429713 -14.922 10.85152 87.41792 36.07391 -22.46894 -5.124435e-11 -8.424699e-11 11.45882 -11.02498 10.93519 5.520998 6.659945 -20.21309 -0.7322048 -87.93595 28.8888 13.12571 4.561912e-11 2.736149e-12 -21.31395 2.421371 13.46053 10.5626
3.672284 103.2768 27.48566 -0.04449952 0.4922882 6.104642 4.298118 -28.44735 6.348671 -4.030275e-10 29.07561 -1.521631e-11 -2.900364 -8.35365 -4.972858 -5.910873 16.85699 -17.15543 -2.091155e-10 15.6585 9.544195e-10 -0.4202025 -20.66326 17.70862 -2.903511 -1.611641 2.72004 2.8032 7.77339 -8.756496 1.218435 21.82075 7.686649 3.052324 -22.75111 9.479584 6.224572 -14.75118 10.89282 87.88681 35.59137 -23.11508 -4.8786e-11 -8.906037e-11 10.83861 -11.08258 11.05346 5.360713 6.723987 -20.65562 -0.9124804 -87.45994 28.40098 12.48896 5.053879e-11 7.253974e-12 -21.98923 2.836592 13.51216 10.02565
3.96469 103.3057 31.30266 -0.1228407 0.3180136 6.501802 4.61874 -28.3367 6.2212 -3.827508e-10 27.20115 -2.678682e-11 -3.199992 -8.339236 -5.00592 -5.725874 16.57876 -16.64678 -1.469146e-10 18.19643 1.005457e-09 -0.736293 -20.15201 17.32575 -2.689557 -1.598974 2.784229 2.83173 7.961946 -8.80489 1.22394 21.839 7.597365 3.051503 -22.69296 9.346569 6.044099 -14.75506 10.98212 88.34656 35.16354 -23.48081 -4.520035e-11 -8.773894e-11 10.57619 -11.29761 11.2272 5.34677 6.744375 -20.99163 -1.044336 -87.48971 27.96131 12.35772 5.244597e-11 9.654225e-12 -22.35688 3.102485 13.52668 9.693165
